<?xml version="1.0" encoding="UTF-8" standalone="no"?>
<!DOCTYPE svg PUBLIC "-//W3C//DTD SVG 20010904//EN"
              "http://www.w3.org/TR/2001/REC-SVG-20010904/DTD/svg10.dtd">

<svg xmlns="http://www.w3.org/2000/svg"
     width="0.444444in" height="0.444444in"
     viewBox="0 0 32 32">
  <path id="Selection"
        fill="#21b5ff" stroke="none" stroke-width="1"
        d="M 10.00,2.00
           C 10.00,2.00 22.00,2.00 22.00,2.00
             22.00,2.00 22.00,6.00 22.00,6.00
             22.00,6.00 26.00,6.00 26.00,6.00
             26.00,6.00 26.00,10.00 26.00,10.00
             26.00,10.00 22.00,10.00 22.00,10.00
             22.00,10.00 22.00,6.00 22.00,6.00
             22.00,6.00 10.00,6.00 10.00,6.00
             10.00,6.00 10.00,10.00 10.00,10.00
             10.00,10.00 6.00,10.00 6.00,10.00
             6.00,10.00 6.00,22.00 6.00,22.00
             6.00,22.00 10.00,22.00 10.00,22.00
             10.00,22.00 10.00,26.00 10.00,26.00
             10.00,26.00 6.00,26.00 6.00,26.00
             6.00,26.00 6.00,22.00 6.00,22.00
             6.00,22.00 2.00,22.00 2.00,22.00
             2.00,22.00 2.00,10.00 2.00,10.00
             2.00,10.00 6.00,10.00 6.00,10.00
             6.00,10.00 6.00,6.00 6.00,6.00
             6.00,6.00 10.00,6.00 10.00,6.00
             10.00,6.00 10.00,2.00 10.00,2.00 Z" />
  <path id="Selection #1"
        fill="#f2ffff" stroke="none" stroke-width="1"
        d="M 10.00,10.00
           C 10.00,10.00 18.00,10.00 18.00,10.00
             18.00,10.00 18.00,14.00 18.00,14.00
             18.00,14.00 14.00,14.00 14.00,14.00
             14.00,14.00 14.00,18.00 14.00,18.00
             14.00,18.00 10.00,18.00 10.00,18.00
             10.00,18.00 10.00,10.00 10.00,10.00 Z" />
  <path id="Selection #2"
        fill="#77d9ff" stroke="none" stroke-width="1"
        d="M 26.00,10.00
           C 26.00,10.00 30.00,10.00 30.00,10.00
             30.00,10.00 30.00,22.00 30.00,22.00
             30.00,22.00 26.00,22.00 26.00,22.00
             26.00,22.00 26.00,26.00 26.00,26.00
             26.00,26.00 22.00,26.00 22.00,26.00
             22.00,26.00 22.00,30.00 22.00,30.00
             22.00,30.00 10.00,30.00 10.00,30.00
             10.00,30.00 10.00,26.00 10.00,26.00
             10.00,26.00 22.00,26.00 22.00,26.00
             22.00,26.00 22.00,22.00 22.00,22.00
             22.00,22.00 26.00,22.00 26.00,22.00
             26.00,22.00 26.00,10.00 26.00,10.00 Z" />
</svg>
